# xmcd CD database file
#
# Track frame offsets:
#	150
#	16832
#	31042
#	49367
#	70802
#	82775
#	100962
#	114745
#	126857
#	143372
#	158612
#	178332
#
# Disc length: 2598 seconds
#
# Revision: 2
# Processed by: cddbd v1.5.1PL0 Copyright (c) Steve Scherf et al.
# Submitted via: CDex 1.51
#
DISCID=920a240c
DTITLE=Roomful Of Blues - Dance All Night
DYEAR=1994
DGENRE=Blues
TTITLE0=That Will Never Do
TTITLE1=Lillie Mae
TTITLE2=Come Back Baby
TTITLE3=Hey Now
TTITLE4=Walkin' Slow Behind You
TTITLE5=I'm Just Your Fool
TTITLE6=You Don't Know
TTITLE7=Up The Line
TTITLE8=Cuttin' In
TTITLE9=Mister Dollar
TTITLE10=Memories Are Sweeter
TTITLE11=Back On Front Street
EXTD=YEAR: 1994
EXTT0=
EXTT1=
EXTT2=
EXTT3=
EXTT4=
EXTT5=
EXTT6=
EXTT7=
EXTT8=
EXTT9=
EXTT10=
EXTT11=
PLAYORDER=
